<svg width="512" height="512" xmlns="http://www.w3.org/2000/svg">

 <g>
  <title>background</title>
  <rect fill="none" id="canvas_background" height="402" width="582" y="-1" x="-1"/>
 </g>
 <g>
  <title>Layer 1</title>
  <path fill="#ffffff" stroke="null" id="svg_3" d="m409.406669,359.943376c-3.168468,0.176026 -6.16091,0.176026 -9.329379,0.176026c-51.22357,0 -99.454697,-19.890939 -135.716056,-56.152298c-36.261359,-36.261359 -56.152298,-84.492486 -56.152298,-135.716056c0,-29.220318 6.512962,-57.38448 18.658757,-82.908252c5.456806,-11.265665 11.969769,-22.003252 19.538887,-32.036734c-13.377977,1.408208 -26.227876,4.224624 -38.725723,8.097197c-82.380174,26.05185 -142.052992,102.975218 -142.052992,193.980666c0,112.304596 91.005449,203.310045 203.310045,203.310045c62.137183,0 117.585377,-27.81211 154.902891,-71.642587c8.449249,-10.033483 16.194393,-20.947096 22.53133,-32.564812c-11.969769,2.992442 -24.29159,4.928728 -36.965463,5.456806zm-140.468758,70.586431c-96.638281,0 -175.145883,-78.507602 -175.145883,-175.145883c0,-68.826171 39.781879,-128.322963 97.518411,-157.015203c-7.393093,22.003252 -11.265665,45.414711 -11.265665,69.882327c0,116.001142 89.773267,211.055189 203.486071,219.504438c-30.628526,26.755954 -70.762457,42.774321 -114.592934,42.774321z"/>
 </g>
</svg>